<svg xmlns="http://www.w3.org/2000/svg" xmlns:xlink="http://www.w3.org/1999/xlink" viewBox="0 0 96.49 67.603">
  <defs>
    <clipPath id="clip-path">
      <rect id="Rectangle_24" data-name="Rectangle 24" width="96.49" height="67.603" transform="translate(0 0)" fill="none"></rect>
    </clipPath>
  </defs>
  <g id="Group_2073" data-name="Group 2073" transform="translate(0 0)">
    <path id="Path_1028" data-name="Path 1028" d="M48.64,34.637V67.6H64.1v-6.38H55.5V34.637Z" fill="#fff"></path>
    <path id="Path_1029" data-name="Path 1029" d="M15.734,0V32.966H31.19v-6.38h-8.6V0Z" fill="#fff"></path>
    <path id="Path_1030" data-name="Path 1030" d="M57.381,0,56.355,19.933h-.1L55.261,0H48.593l3.864,32.966H60.15L64.048,0Z" fill="#fff"></path>
    <path id="Path_1031" data-name="Path 1031" d="M65.719,34.637V67.6H79.782V61.271H72.575V54.127h5.537v-6H72.575V40.98h7.207V34.637Z" fill="#fff"></path>
    <path id="Path_1032" data-name="Path 1032" d="M65.719,0V32.966H79.782V26.635H72.575V19.49h5.537v-6H72.575V6.344h7.207V0Z" fill="#fff"></path>
    <path id="Path_1033" data-name="Path 1033" d="M32.86,0V32.966H46.923V26.635H39.716V19.49h5.536v-6H39.716V6.344h7.207V0Z" fill="#fff"></path>
    <path id="Path_1034" data-name="Path 1034" d="M0,0V32.966H14.063V26.635H6.856V19.49h5.537v-6H6.856V6.344h7.207V0Z" fill="#fff"></path>
    <path id="Path_1035" data-name="Path 1035" d="M90.452,0V13.725h-.117L87.491,0H81.453V32.966h6.078V19.218h.116l2.766,13.748H96.49V0Z" fill="#fff"></path>
    <g id="Group_2072" data-name="Group 2072">
      <g id="Group_2071" data-name="Group 2071" clip-path="url(#clip-path)">
        <path id="Path_1036" data-name="Path 1036" d="M95.086,36.04a4.876,4.876,0,0,0-1.52-1.019,4.585,4.585,0,0,0-1.845-.385H86.183a4.413,4.413,0,0,0-1.846.385,5.259,5.259,0,0,0-1.5,1.019,4.458,4.458,0,0,0-1.021,1.52,4.809,4.809,0,0,0-.364,1.845v10a2.447,2.447,0,0,0,.25,1.23,2.73,2.73,0,0,0,.9.846l6.577,3.3a1.058,1.058,0,0,1,.442.48,2.812,2.812,0,0,1,.057.675v4.874c0,.307-.14.46-.422.46h-.615q-.424,0-.424-.46V55.886H81.453v6.948a4.771,4.771,0,0,0,.364,1.865,4.514,4.514,0,0,0,1.021,1.5,5.236,5.236,0,0,0,1.5,1.018,4.4,4.4,0,0,0,1.846.385h5.538a4.569,4.569,0,0,0,1.845-.385,4.857,4.857,0,0,0,1.52-1.018,4.932,4.932,0,0,0,1.019-1.5,4.545,4.545,0,0,0,.385-1.865v-10a2.53,2.53,0,0,0-.251-1.269,2.75,2.75,0,0,0-.9-.846l-6.614-3.492a.87.87,0,0,1-.443-.46,2.88,2.88,0,0,1-.058-.654V41.4a.374.374,0,0,1,.424-.423h.615a.373.373,0,0,1,.422.423v5.151H96.49V39.4a4.582,4.582,0,0,0-.385-1.845,4.859,4.859,0,0,0-1.019-1.52" fill="#fff"></path>
        <path id="Path_1037" data-name="Path 1037" d="M32.86,40.956h3.468V61.284H32.86V67.6H47.016V61.284H43.548V40.956h3.468V34.637H32.86Z" fill="#fff"></path>
        <path id="Path_1038" data-name="Path 1038" d="M15.68,54.95h-.124L10.82,34.637H0V67.6H6.824V48h.124l6.3,19.6h4.742l6.3-19.6h.123V67.6h6.825V34.637H20.416Z" fill="#fff"></path>
      </g>
    </g>
  </g>
</svg>